<?xml version="1.0" encoding="utf-8" standalone="no"?>
<!DOCTYPE svg PUBLIC "-//W3C//DTD SVG 1.1//EN"
  "http://www.w3.org/Graphics/SVG/1.1/DTD/svg11.dtd">
<svg xmlns:xlink="http://www.w3.org/1999/xlink" width="496.6825pt" height="194.078437pt" viewBox="0 0 496.6825 194.078437" xmlns="http://www.w3.org/2000/svg" version="1.1">
 <metadata>
  <rdf:RDF xmlns:dc="http://purl.org/dc/elements/1.1/" xmlns:cc="http://creativecommons.org/ns#" xmlns:rdf="http://www.w3.org/1999/02/22-rdf-syntax-ns#">
   <cc:Work>
    <dc:type rdf:resource="http://purl.org/dc/dcmitype/StillImage"/>
    <dc:date>2026-10-04T01:02:52.087598</dc:date>
    <dc:format>image/svg+xml</dc:format>
    <dc:creator>
     <cc:Agent>
      <dc:title>Matplotlib v3.11.2, https://matplotlib.org/</dc:title>
     </cc:Agent>
    </dc:creator>
   </cc:Work>
  </rdf:RDF>
 </metadata>
 <defs>
  <style type="text/css">*{stroke-linejoin: round; stroke-linecap: butt}</style>
 </defs>
 <g id="figure_1">
  <g id="patch_1">
   <path d="M 0 194.078437 
L 496.6825 194.078437 
L 496.6825 0 
L 0 0 
L 0 194.078437 
z
" style="fill: none"/>
  </g>
  <g id="axes_1">
   <g id="patch_2">
    <path d="M 34.5625 155.877656 
L 489.4825 155.877656 
L 489.4825 7.2 
L 34.5625 7.2 
L 34.5625 155.877656 
z
" style="fill: none"/>
   </g>
   <g id="patch_3">
    <path d="M 55.240682 155.877656 
L 63.511955 155.877656 
L 63.511955 124.411486 
L 55.240682 124.411486 
z
" clip-path="url(#pe1f0e853b5)" style="fill: #4f6bed; opacity: 0.6"/>
   </g>
   <g id="patch_4">
    <path d="M 63.511955 155.877656 
L 71.783227 155.877656 
L 71.783227 124.411486 
L 63.511955 124.411486 
z
" clip-path="url(#pe1f0e853b5)" style="fill: #4f6bed; opacity: 0.6"/>
   </g>
   <g id="patch_5">
    <path d="M 71.783227 155.877656 
L 80.0545 155.877656 
L 80.0545 155.877656 
L 71.783227 155.877656 
z
" clip-path="url(#pe1f0e853b5)" style="fill: #4f6bed; opacity: 0.6"/>
   </g>
   <g id="patch_6">
    <path d="M 80.0545 155.877656 
L 88.325773 155.877656 
L 88.325773 124.411486 
L 80.0545 124.411486 
z
" clip-path="url(#pe1f0e853b5)" style="fill: #4f6bed; opacity: 0.6"/>
   </g>
   <g id="patch_7">
    <path d="M 88.325773 155.877656 
L 96.597045 155.877656 
L 96.597045 108.6784 
L 88.325773 108.6784 
z
" clip-path="url(#pe1f0e853b5)" style="fill: #4f6bed; opacity: 0.6"/>
   </g>
   <g id="patch_8">
    <path d="M 96.597045 155.877656 
L 104.868318 155.877656 
L 104.868318 124.411486 
L 96.597045 124.411486 
z
" clip-path="url(#pe1f0e853b5)" style="fill: #4f6bed; opacity: 0.6"/>
   </g>
   <g id="patch_9">
    <path d="M 104.868318 155.877656 
L 113.139591 155.877656 
L 113.139591 140.144571 
L 104.868318 140.144571 
z
" clip-path="url(#pe1f0e853b5)" style="fill: #4f6bed; opacity: 0.6"/>
   </g>
   <g id="patch_10">
    <path d="M 113.139591 155.877656 
L 121.410864 155.877656 
L 121.410864 140.144571 
L 113.139591 140.144571 
z
" clip-path="url(#pe1f0e853b5)" style="fill: #4f6bed; opacity: 0.6"/>
   </g>
   <g id="patch_11">
    <path d="M 121.410864 155.877656 
L 129.682136 155.877656 
L 129.682136 92.945315 
L 121.410864 92.945315 
z
" clip-path="url(#pe1f0e853b5)" style="fill: #4f6bed; opacity: 0.6"/>
   </g>
   <g id="patch_12">
    <path d="M 129.682136 155.877656 
L 137.953409 155.877656 
L 137.953409 92.945315 
L 129.682136 92.945315 
z
" clip-path="url(#pe1f0e853b5)" style="fill: #4f6bed; opacity: 0.6"/>
   </g>
   <g id="patch_13">
    <path d="M 137.953409 155.877656 
L 146.224682 155.877656 
L 146.224682 92.945315 
L 137.953409 92.945315 
z
" clip-path="url(#pe1f0e853b5)" style="fill: #4f6bed; opacity: 0.6"/>
   </g>
   <g id="patch_14">
    <path d="M 146.224682 155.877656 
L 154.495955 155.877656 
L 154.495955 108.6784 
L 146.224682 108.6784 
z
" clip-path="url(#pe1f0e853b5)" style="fill: #4f6bed; opacity: 0.6"/>
   </g>
   <g id="patch_15">
    <path d="M 154.495955 155.877656 
L 162.767227 155.877656 
L 162.767227 45.746059 
L 154.495955 45.746059 
z
" clip-path="url(#pe1f0e853b5)" style="fill: #4f6bed; opacity: 0.6"/>
   </g>
   <g id="patch_16">
    <path d="M 162.767227 155.877656 
L 171.0385 155.877656 
L 171.0385 92.945315 
L 162.767227 92.945315 
z
" clip-path="url(#pe1f0e853b5)" style="fill: #4f6bed; opacity: 0.6"/>
   </g>
   <g id="patch_17">
    <path d="M 171.0385 155.877656 
L 179.309773 155.877656 
L 179.309773 108.6784 
L 171.0385 108.6784 
z
" clip-path="url(#pe1f0e853b5)" style="fill: #4f6bed; opacity: 0.6"/>
   </g>
   <g id="patch_18">
    <path d="M 179.309773 155.877656 
L 187.581045 155.877656 
L 187.581045 45.746059 
L 179.309773 45.746059 
z
" clip-path="url(#pe1f0e853b5)" style="fill: #4f6bed; opacity: 0.6"/>
   </g>
   <g id="patch_19">
    <path d="M 187.581045 155.877656 
L 195.852318 155.877656 
L 195.852318 77.21223 
L 187.581045 77.21223 
z
" clip-path="url(#pe1f0e853b5)" style="fill: #4f6bed; opacity: 0.6"/>
   </g>
   <g id="patch_20">
    <path d="M 195.852318 155.877656 
L 204.123591 155.877656 
L 204.123591 14.279888 
L 195.852318 14.279888 
z
" clip-path="url(#pe1f0e853b5)" style="fill: #4f6bed; opacity: 0.6"/>
   </g>
   <g id="patch_21">
    <path d="M 204.123591 155.877656 
L 212.394864 155.877656 
L 212.394864 92.945315 
L 204.123591 92.945315 
z
" clip-path="url(#pe1f0e853b5)" style="fill: #4f6bed; opacity: 0.6"/>
   </g>
   <g id="patch_22">
    <path d="M 212.394864 155.877656 
L 220.666136 155.877656 
L 220.666136 61.479144 
L 212.394864 61.479144 
z
" clip-path="url(#pe1f0e853b5)" style="fill: #4f6bed; opacity: 0.6"/>
   </g>
   <g id="patch_23">
    <path d="M 220.666136 155.877656 
L 228.937409 155.877656 
L 228.937409 92.945315 
L 220.666136 92.945315 
z
" clip-path="url(#pe1f0e853b5)" style="fill: #4f6bed; opacity: 0.6"/>
   </g>
   <g id="patch_24">
    <path d="M 228.937409 155.877656 
L 237.208682 155.877656 
L 237.208682 61.479144 
L 228.937409 61.479144 
z
" clip-path="url(#pe1f0e853b5)" style="fill: #4f6bed; opacity: 0.6"/>
   </g>
   <g id="patch_25">
    <path d="M 237.208682 155.877656 
L 245.479955 155.877656 
L 245.479955 14.279888 
L 237.208682 14.279888 
z
" clip-path="url(#pe1f0e853b5)" style="fill: #4f6bed; opacity: 0.6"/>
   </g>
   <g id="patch_26">
    <path d="M 245.479955 155.877656 
L 253.751227 155.877656 
L 253.751227 14.279888 
L 245.479955 14.279888 
z
" clip-path="url(#pe1f0e853b5)" style="fill: #4f6bed; opacity: 0.6"/>
   </g>
   <g id="patch_27">
    <path d="M 253.751227 155.877656 
L 262.0225 155.877656 
L 262.0225 45.746059 
L 253.751227 45.746059 
z
" clip-path="url(#pe1f0e853b5)" style="fill: #4f6bed; opacity: 0.6"/>
   </g>
   <g id="patch_28">
    <path d="M 262.0225 155.877656 
L 270.293773 155.877656 
L 270.293773 14.279888 
L 262.0225 14.279888 
z
" clip-path="url(#pe1f0e853b5)" style="fill: #4f6bed; opacity: 0.6"/>
   </g>
   <g id="patch_29">
    <path d="M 270.293773 155.877656 
L 278.565045 155.877656 
L 278.565045 30.012974 
L 270.293773 30.012974 
z
" clip-path="url(#pe1f0e853b5)" style="fill: #4f6bed; opacity: 0.6"/>
   </g>
   <g id="patch_30">
    <path d="M 278.565045 155.877656 
L 286.836318 155.877656 
L 286.836318 30.012974 
L 278.565045 30.012974 
z
" clip-path="url(#pe1f0e853b5)" style="fill: #4f6bed; opacity: 0.6"/>
   </g>
   <g id="patch_31">
    <path d="M 286.836318 155.877656 
L 295.107591 155.877656 
L 295.107591 108.6784 
L 286.836318 108.6784 
z
" clip-path="url(#pe1f0e853b5)" style="fill: #4f6bed; opacity: 0.6"/>
   </g>
   <g id="patch_32">
    <path d="M 295.107591 155.877656 
L 303.378864 155.877656 
L 303.378864 30.012974 
L 295.107591 30.012974 
z
" clip-path="url(#pe1f0e853b5)" style="fill: #4f6bed; opacity: 0.6"/>
   </g>
   <g id="patch_33">
    <path d="M 303.378864 155.877656 
L 311.650136 155.877656 
L 311.650136 124.411486 
L 303.378864 124.411486 
z
" clip-path="url(#pe1f0e853b5)" style="fill: #4f6bed; opacity: 0.6"/>
   </g>
   <g id="patch_34">
    <path d="M 311.650136 155.877656 
L 319.921409 155.877656 
L 319.921409 77.21223 
L 311.650136 77.21223 
z
" clip-path="url(#pe1f0e853b5)" style="fill: #4f6bed; opacity: 0.6"/>
   </g>
   <g id="patch_35">
    <path d="M 319.921409 155.877656 
L 328.192682 155.877656 
L 328.192682 61.479144 
L 319.921409 61.479144 
z
" clip-path="url(#pe1f0e853b5)" style="fill: #4f6bed; opacity: 0.6"/>
   </g>
   <g id="patch_36">
    <path d="M 328.192682 155.877656 
L 336.463955 155.877656 
L 336.463955 61.479144 
L 328.192682 61.479144 
z
" clip-path="url(#pe1f0e853b5)" style="fill: #4f6bed; opacity: 0.6"/>
   </g>
   <g id="patch_37">
    <path d="M 336.463955 155.877656 
L 344.735227 155.877656 
L 344.735227 124.411486 
L 336.463955 124.411486 
z
" clip-path="url(#pe1f0e853b5)" style="fill: #4f6bed; opacity: 0.6"/>
   </g>
   <g id="patch_38">
    <path d="M 344.735227 155.877656 
L 353.0065 155.877656 
L 353.0065 92.945315 
L 344.735227 92.945315 
z
" clip-path="url(#pe1f0e853b5)" style="fill: #4f6bed; opacity: 0.6"/>
   </g>
   <g id="patch_39">
    <path d="M 353.0065 155.877656 
L 361.277773 155.877656 
L 361.277773 92.945315 
L 353.0065 92.945315 
z
" clip-path="url(#pe1f0e853b5)" style="fill: #4f6bed; opacity: 0.6"/>
   </g>
   <g id="patch_40">
    <path d="M 361.277773 155.877656 
L 369.549045 155.877656 
L 369.549045 77.21223 
L 361.277773 77.21223 
z
" clip-path="url(#pe1f0e853b5)" style="fill: #4f6bed; opacity: 0.6"/>
   </g>
   <g id="patch_41">
    <path d="M 369.549045 155.877656 
L 377.820318 155.877656 
L 377.820318 124.411486 
L 369.549045 124.411486 
z
" clip-path="url(#pe1f0e853b5)" style="fill: #4f6bed; opacity: 0.6"/>
   </g>
   <g id="patch_42">
    <path d="M 377.820318 155.877656 
L 386.091591 155.877656 
L 386.091591 124.411486 
L 377.820318 124.411486 
z
" clip-path="url(#pe1f0e853b5)" style="fill: #4f6bed; opacity: 0.6"/>
   </g>
   <g id="patch_43">
    <path d="M 386.091591 155.877656 
L 394.362864 155.877656 
L 394.362864 108.6784 
L 386.091591 108.6784 
z
" clip-path="url(#pe1f0e853b5)" style="fill: #4f6bed; opacity: 0.6"/>
   </g>
   <g id="patch_44">
    <path d="M 394.362864 155.877656 
L 402.634136 155.877656 
L 402.634136 124.411486 
L 394.362864 124.411486 
z
" clip-path="url(#pe1f0e853b5)" style="fill: #4f6bed; opacity: 0.6"/>
   </g>
   <g id="patch_45">
    <path d="M 402.634136 155.877656 
L 410.905409 155.877656 
L 410.905409 108.6784 
L 402.634136 108.6784 
z
" clip-path="url(#pe1f0e853b5)" style="fill: #4f6bed; opacity: 0.6"/>
   </g>
   <g id="patch_46">
    <path d="M 410.905409 155.877656 
L 419.176682 155.877656 
L 419.176682 124.411486 
L 410.905409 124.411486 
z
" clip-path="url(#pe1f0e853b5)" style="fill: #4f6bed; opacity: 0.6"/>
   </g>
   <g id="patch_47">
    <path d="M 419.176682 155.877656 
L 427.447955 155.877656 
L 427.447955 124.411486 
L 419.176682 124.411486 
z
" clip-path="url(#pe1f0e853b5)" style="fill: #4f6bed; opacity: 0.6"/>
   </g>
   <g id="patch_48">
    <path d="M 427.447955 155.877656 
L 435.719227 155.877656 
L 435.719227 92.945315 
L 427.447955 92.945315 
z
" clip-path="url(#pe1f0e853b5)" style="fill: #4f6bed; opacity: 0.6"/>
   </g>
   <g id="patch_49">
    <path d="M 435.719227 155.877656 
L 443.9905 155.877656 
L 443.9905 140.144571 
L 435.719227 140.144571 
z
" clip-path="url(#pe1f0e853b5)" style="fill: #4f6bed; opacity: 0.6"/>
   </g>
   <g id="patch_50">
    <path d="M 443.9905 155.877656 
L 452.261773 155.877656 
L 452.261773 155.877656 
L 443.9905 155.877656 
z
" clip-path="url(#pe1f0e853b5)" style="fill: #4f6bed; opacity: 0.6"/>
   </g>
   <g id="patch_51">
    <path d="M 452.261773 155.877656 
L 460.533045 155.877656 
L 460.533045 155.877656 
L 452.261773 155.877656 
z
" clip-path="url(#pe1f0e853b5)" style="fill: #4f6bed; opacity: 0.6"/>
   </g>
   <g id="patch_52">
    <path d="M 460.533045 155.877656 
L 468.804318 155.877656 
L 468.804318 140.144571 
L 460.533045 140.144571 
z
" clip-path="url(#pe1f0e853b5)" style="fill: #4f6bed; opacity: 0.6"/>
   </g>
   <g id="matplotlib.axis_1">
    <g id="xtick_1">
     <g id="line2d_1">
      <path d="M 78.441942 155.877656 
L 78.441942 7.2 
" clip-path="url(#pe1f0e853b5)" style="fill: none; stroke: #dddddd; stroke-width: 0.6; stroke-linecap: square"/>
     </g>
     <g id="line2d_2">
      <defs>
       <path id="m69ff072bf8" d="M 0 0 
L 0 3.5 
" style="stroke: #444444; stroke-width: 0.8"/>
      </defs>
      <g>
       <use xlink:href="#m69ff072bf8" x="78.441942" y="155.877656" style="fill: #444444; stroke: #444444; stroke-width: 0.8"/>
      </g>
     </g>
     <g id="text_1">
      <text style="font-size: 10px; font-family: 'DejaVu Sans', 'Bitstream Vera Sans', 'Computer Modern Sans Serif', 'Lucida Grande', 'Verdana', 'Geneva', 'Lucid', 'Arial', 'Helvetica', 'Avant Garde', sans-serif; text-anchor: middle; fill: #444444" x="78.441942" y="170.475312" transform="rotate(-0 78.441942 170.475312)">−1</text>
     </g>
    </g>
    <g id="xtick_2">
     <g id="line2d_3">
      <path d="M 166.213851 155.877656 
L 166.213851 7.2 
" clip-path="url(#pe1f0e853b5)" style="fill: none; stroke: #dddddd; stroke-width: 0.6; stroke-linecap: square"/>
     </g>
     <g id="line2d_4">
      <g>
       <use xlink:href="#m69ff072bf8" x="166.213851" y="155.877656" style="fill: #444444; stroke: #444444; stroke-width: 0.8"/>
      </g>
     </g>
     <g id="text_2">
      <text style="font-size: 10px; font-family: 'DejaVu Sans', 'Bitstream Vera Sans', 'Computer Modern Sans Serif', 'Lucida Grande', 'Verdana', 'Geneva', 'Lucid', 'Arial', 'Helvetica', 'Avant Garde', sans-serif; text-anchor: middle; fill: #444444" x="166.213851" y="170.475312" transform="rotate(-0 166.213851 170.475312)">0</text>
     </g>
    </g>
    <g id="xtick_3">
     <g id="line2d_5">
      <path d="M 253.98576 155.877656 
L 253.98576 7.2 
" clip-path="url(#pe1f0e853b5)" style="fill: none; stroke: #dddddd; stroke-width: 0.6; stroke-linecap: square"/>
     </g>
     <g id="line2d_6">
      <g>
       <use xlink:href="#m69ff072bf8" x="253.98576" y="155.877656" style="fill: #444444; stroke: #444444; stroke-width: 0.8"/>
      </g>
     </g>
     <g id="text_3">
      <text style="font-size: 10px; font-family: 'DejaVu Sans', 'Bitstream Vera Sans', 'Computer Modern Sans Serif', 'Lucida Grande', 'Verdana', 'Geneva', 'Lucid', 'Arial', 'Helvetica', 'Avant Garde', sans-serif; text-anchor: middle; fill: #444444" x="253.98576" y="170.475312" transform="rotate(-0 253.98576 170.475312)">1</text>
     </g>
    </g>
    <g id="xtick_4">
     <g id="line2d_7">
      <path d="M 341.757668 155.877656 
L 341.757668 7.2 
" clip-path="url(#pe1f0e853b5)" style="fill: none; stroke: #dddddd; stroke-width: 0.6; stroke-linecap: square"/>
     </g>
     <g id="line2d_8">
      <g>
       <use xlink:href="#m69ff072bf8" x="341.757668" y="155.877656" style="fill: #444444; stroke: #444444; stroke-width: 0.8"/>
      </g>
     </g>
     <g id="text_4">
      <text style="font-size: 10px; font-family: 'DejaVu Sans', 'Bitstream Vera Sans', 'Computer Modern Sans Serif', 'Lucida Grande', 'Verdana', 'Geneva', 'Lucid', 'Arial', 'Helvetica', 'Avant Garde', sans-serif; text-anchor: middle; fill: #444444" x="341.757668" y="170.475312" transform="rotate(-0 341.757668 170.475312)">2</text>
     </g>
    </g>
    <g id="xtick_5">
     <g id="line2d_9">
      <path d="M 429.529577 155.877656 
L 429.529577 7.2 
" clip-path="url(#pe1f0e853b5)" style="fill: none; stroke: #dddddd; stroke-width: 0.6; stroke-linecap: square"/>
     </g>
     <g id="line2d_10">
      <g>
       <use xlink:href="#m69ff072bf8" x="429.529577" y="155.877656" style="fill: #444444; stroke: #444444; stroke-width: 0.8"/>
      </g>
     </g>
     <g id="text_5">
      <text style="font-size: 10px; font-family: 'DejaVu Sans', 'Bitstream Vera Sans', 'Computer Modern Sans Serif', 'Lucida Grande', 'Verdana', 'Geneva', 'Lucid', 'Arial', 'Helvetica', 'Avant Garde', sans-serif; text-anchor: middle; fill: #444444" x="429.529577" y="170.475312" transform="rotate(-0 429.529577 170.475312)">3</text>
     </g>
    </g>
    <g id="text_6">
     <text style="font-size: 10px; font-family: 'DejaVu Sans', 'Bitstream Vera Sans', 'Computer Modern Sans Serif', 'Lucida Grande', 'Verdana', 'Geneva', 'Lucid', 'Arial', 'Helvetica', 'Avant Garde', sans-serif; text-anchor: middle; fill: #222222" x="262.0225" y="184.476094" transform="rotate(-0 262.0225 184.476094)">weight × N</text>
    </g>
   </g>
   <g id="matplotlib.axis_2">
    <g id="ytick_1">
     <g id="line2d_11">
      <path d="M 34.5625 155.877656 
L 489.4825 155.877656 
" clip-path="url(#pe1f0e853b5)" style="fill: none; stroke: #dddddd; stroke-width: 0.6; stroke-linecap: square"/>
     </g>
     <g id="line2d_12">
      <defs>
       <path id="mfa52534157" d="M 0 0 
L -3.5 0 
" style="stroke: #444444; stroke-width: 0.8"/>
      </defs>
      <g>
       <use xlink:href="#mfa52534157" x="34.5625" y="155.877656" style="fill: #444444; stroke: #444444; stroke-width: 0.8"/>
      </g>
     </g>
     <g id="text_7">
      <text style="font-size: 10px; font-family: 'DejaVu Sans', 'Bitstream Vera Sans', 'Computer Modern Sans Serif', 'Lucida Grande', 'Verdana', 'Geneva', 'Lucid', 'Arial', 'Helvetica', 'Avant Garde', sans-serif; text-anchor: end; fill: #444444" x="27.5625" y="159.676484" transform="rotate(-0 27.5625 159.676484)">0</text>
     </g>
    </g>
    <g id="ytick_2">
     <g id="line2d_13">
      <path d="M 34.5625 124.411486 
L 489.4825 124.411486 
" clip-path="url(#pe1f0e853b5)" style="fill: none; stroke: #dddddd; stroke-width: 0.6; stroke-linecap: square"/>
     </g>
     <g id="line2d_14">
      <g>
       <use xlink:href="#mfa52534157" x="34.5625" y="124.411486" style="fill: #444444; stroke: #444444; stroke-width: 0.8"/>
      </g>
     </g>
     <g id="text_8">
      <text style="font-size: 10px; font-family: 'DejaVu Sans', 'Bitstream Vera Sans', 'Computer Modern Sans Serif', 'Lucida Grande', 'Verdana', 'Geneva', 'Lucid', 'Arial', 'Helvetica', 'Avant Garde', sans-serif; text-anchor: end; fill: #444444" x="27.5625" y="128.210314" transform="rotate(-0 27.5625 128.210314)">2</text>
     </g>
    </g>
    <g id="ytick_3">
     <g id="line2d_15">
      <path d="M 34.5625 92.945315 
L 489.4825 92.945315 
" clip-path="url(#pe1f0e853b5)" style="fill: none; stroke: #dddddd; stroke-width: 0.6; stroke-linecap: square"/>
     </g>
     <g id="line2d_16">
      <g>
       <use xlink:href="#mfa52534157" x="34.5625" y="92.945315" style="fill: #444444; stroke: #444444; stroke-width: 0.8"/>
      </g>
     </g>
     <g id="text_9">
      <text style="font-size: 10px; font-family: 'DejaVu Sans', 'Bitstream Vera Sans', 'Computer Modern Sans Serif', 'Lucida Grande', 'Verdana', 'Geneva', 'Lucid', 'Arial', 'Helvetica', 'Avant Garde', sans-serif; text-anchor: end; fill: #444444" x="27.5625" y="96.744143" transform="rotate(-0 27.5625 96.744143)">4</text>
     </g>
    </g>
    <g id="ytick_4">
     <g id="line2d_17">
      <path d="M 34.5625 61.479144 
L 489.4825 61.479144 
" clip-path="url(#pe1f0e853b5)" style="fill: none; stroke: #dddddd; stroke-width: 0.6; stroke-linecap: square"/>
     </g>
     <g id="line2d_18">
      <g>
       <use xlink:href="#mfa52534157" x="34.5625" y="61.479144" style="fill: #444444; stroke: #444444; stroke-width: 0.8"/>
      </g>
     </g>
     <g id="text_10">
      <text style="font-size: 10px; font-family: 'DejaVu Sans', 'Bitstream Vera Sans', 'Computer Modern Sans Serif', 'Lucida Grande', 'Verdana', 'Geneva', 'Lucid', 'Arial', 'Helvetica', 'Avant Garde', sans-serif; text-anchor: end; fill: #444444" x="27.5625" y="65.277972" transform="rotate(-0 27.5625 65.277972)">6</text>
     </g>
    </g>
    <g id="ytick_5">
     <g id="line2d_19">
      <path d="M 34.5625 30.012974 
L 489.4825 30.012974 
" clip-path="url(#pe1f0e853b5)" style="fill: none; stroke: #dddddd; stroke-width: 0.6; stroke-linecap: square"/>
     </g>
     <g id="line2d_20">
      <g>
       <use xlink:href="#mfa52534157" x="34.5625" y="30.012974" style="fill: #444444; stroke: #444444; stroke-width: 0.8"/>
      </g>
     </g>
     <g id="text_11">
      <text style="font-size: 10px; font-family: 'DejaVu Sans', 'Bitstream Vera Sans', 'Computer Modern Sans Serif', 'Lucida Grande', 'Verdana', 'Geneva', 'Lucid', 'Arial', 'Helvetica', 'Avant Garde', sans-serif; text-anchor: end; fill: #444444" x="27.5625" y="33.811802" transform="rotate(-0 27.5625 33.811802)">8</text>
     </g>
    </g>
    <g id="text_12">
     <text style="font-size: 10px; font-family: 'DejaVu Sans', 'Bitstream Vera Sans', 'Computer Modern Sans Serif', 'Lucida Grande', 'Verdana', 'Geneva', 'Lucid', 'Arial', 'Helvetica', 'Avant Garde', sans-serif; text-anchor: middle; fill: #222222" x="14.797656" y="81.538828" transform="rotate(-90 14.797656 81.538828)">count</text>
    </g>
   </g>
   <g id="line2d_21">
    <path d="M 253.98576 155.877656 
L 253.98576 7.2 
" clip-path="url(#pe1f0e853b5)" style="fill: none; stroke: #f57c00; stroke-width: 2; stroke-linecap: square"/>
   </g>
   <g id="patch_53">
    <path d="M 34.5625 155.877656 
L 34.5625 7.2 
" style="fill: none; stroke: #444444; stroke-width: 0.8; stroke-linejoin: miter; stroke-linecap: square"/>
   </g>
   <g id="patch_54">
    <path d="M 34.5625 155.877656 
L 489.4825 155.877656 
" style="fill: none; stroke: #444444; stroke-width: 0.8; stroke-linejoin: miter; stroke-linecap: square"/>
   </g>
   <g id="legend_1">
    <g id="line2d_22">
     <path d="M 314.324687 20.298438 
L 324.324687 20.298438 
L 334.324687 20.298438 
" style="fill: none; stroke: #f57c00; stroke-width: 2; stroke-linecap: square"/>
    </g>
    <g id="text_13">
     <text style="font-size: 10px; font-family: 'DejaVu Sans', 'Bitstream Vera Sans', 'Computer Modern Sans Serif', 'Lucida Grande', 'Verdana', 'Geneva', 'Lucid', 'Arial', 'Helvetica', 'Avant Garde', sans-serif; text-anchor: start; fill: #222222" x="342.324687" y="23.798438" transform="rotate(-0 342.324687 23.798438)">true optimal weight (= 1/N)</text>
    </g>
   </g>
  </g>
 </g>
 <defs>
  <clipPath id="pe1f0e853b5">
   <rect x="34.5625" y="7.2" width="454.92" height="148.677656"/>
  </clipPath>
 </defs>
</svg>
